<svg xmlns="http://www.w3.org/2000/svg" width="1280" height="720" viewBox="0 0 1280 720">
  <defs>
    <linearGradient id="sky" x1="0" y1="0" x2="0" y2="1">
      <stop offset="0%" stop-color="#1b2a4a"/>
      <stop offset="45%" stop-color="#5b6fa3"/>
      <stop offset="70%" stop-color="#f2a65a"/>
      <stop offset="100%" stop-color="#ffd9a0"/>
    </linearGradient>
    <radialGradient id="sun" cx="50%" cy="50%" r="50%">
      <stop offset="0%" stop-color="#fff6d8"/>
      <stop offset="60%" stop-color="#ffd27a"/>
      <stop offset="100%" stop-color="#ffb35c" stop-opacity="0"/>
    </radialGradient>
    <linearGradient id="water" x1="0" y1="0" x2="0" y2="1">
      <stop offset="0%" stop-color="#f2a65a" stop-opacity="0.55"/>
      <stop offset="100%" stop-color="#1b2a4a" stop-opacity="0.9"/>
    </linearGradient>
  </defs>
  <rect width="1280" height="720" fill="url(#sky)"/>
  <circle cx="640" cy="430" r="230" fill="url(#sun)"/>
  <circle cx="640" cy="430" r="70" fill="#ffe9b8"/>
  <polygon points="0,470 180,330 340,460 520,300 700,470 880,340 1060,460 1280,360 1280,720 0,720" fill="#4b5b86" opacity="0.75"/>
  <polygon points="0,520 220,400 460,520 680,380 940,520 1160,410 1280,500 1280,720 0,720" fill="#33436b" opacity="0.9"/>
  <polygon points="0,560 260,470 540,570 820,450 1080,570 1280,500 1280,720 0,720" fill="#1f2b47"/>
  <rect x="0" y="560" width="1280" height="160" fill="url(#water)"/>
  <path d="M300 200 q14 -14 28 0 q14 -14 28 0" stroke="#2a2a2a" stroke-width="3" fill="none" opacity="0.5"/>
  <path d="M380 240 q12 -12 24 0 q12 -12 24 0" stroke="#2a2a2a" stroke-width="3" fill="none" opacity="0.4"/>
  <g font-family="Consolas, monospace" font-size="20" fill="#ffffff">
    <rect x="0" y="674" width="1280" height="46" fill="#000000" opacity="0.35"/>
    <text x="20" y="702" opacity="0.85">Mobile Preview — no camera detected, showing placeholder</text>
  </g>
</svg>
