<svg xmlns="http://www.w3.org/2000/svg" viewBox="0 0 128 128" width="128" height="128">
  <defs>
    <linearGradient id="bg" x1="0" y1="0" x2="1" y2="1">
      <stop offset="0%" stop-color="#5b8cff"/>
      <stop offset="100%" stop-color="#7b5bff"/>
    </linearGradient>
  </defs>
  <rect width="128" height="128" rx="24" fill="url(#bg)"/>
  <path fill="#ffffff" d="M45 20h38a9 9 0 0 1 9 9v70a9 9 0 0 1-9 9H45a9 9 0 0 1-9-9V29a9 9 0 0 1 9-9zm0 9v62h38V29H45zm14 68a5 5 0 1 0 10 0 5 5 0 0 0-10 0z"/>
</svg>
